<?xml version="1.0" standalone="no"?>
<!DOCTYPE svg PUBLIC "-//W3C//DTD SVG 20010904//EN"
 "http://www.w3.org/TR/2001/REC-SVG-20010904/DTD/svg10.dtd">
<svg version="1.0" xmlns="http://www.w3.org/2000/svg"
 width="260.000000pt" height="260.000000pt" viewBox="0 0 260.000000 260.000000"
 preserveAspectRatio="xMidYMid meet">
<metadata>
Created by potrace 1.11, written by Peter Selinger 2001-2013
</metadata>
<g transform="translate(0.000000,260.000000) scale(0.100000,-0.100000)"
fill="#000000" stroke="none">
<path d="M2200 2209 c-63 -16 -124 -30 -135 -33 -56 -12 -472 -128 -515 -144
-8 -3 -19 -6 -25 -8 -142 -40 -552 -194 -695 -261 -114 -53 -224 -107 -230
-113 -3 -3 -30 -18 -60 -34 -85 -45 -207 -127 -287 -191 -76 -60 -90 -90 -60
-127 6 -9 134 -89 282 -179 149 -89 278 -168 287 -176 9 -8 16 -22 16 -31 -1
-15 6 -102 17 -217 13 -144 18 -196 20 -233 2 -48 25 -82 52 -82 10 0 96 52
190 115 95 63 177 115 183 115 19 0 293 -195 298 -212 9 -36 216 212 332 397
24 39 50 81 59 95 31 50 137 257 179 350 24 54 102 254 127 325 9 28 20 57 23
65 3 8 6 20 7 25 2 6 19 64 39 130 35 120 83 316 92 385 6 45 -14 71 -54 69
-15 -1 -79 -14 -142 -30z m80 -106 c-1 -18 -41 -179 -79 -308 -24 -85 -106
-322 -132 -382 -13 -30 -23 -42 -31 -37 -7 4 -101 66 -208 138 -107 72 -203
135 -212 141 -62 37 -277 181 -277 186 -2 18 541 184 854 262 80 20 85 20 85
0z m-1085 -323 c-3 -5 -7 -31 -9 -57 -8 -105 -19 -191 -25 -201 -3 -5 -30 -13
-60 -17 -30 -4 -63 -9 -75 -11 -11 -2 -36 -6 -56 -8 -95 -14 -261 -38 -315
-46 -33 -6 -76 -12 -95 -14 -19 -3 -59 -8 -87 -12 -56 -7 -69 0 -30 16 24 11
59 32 67 40 9 10 91 55 195 108 149 75 234 113 390 177 17 6 41 17 55 23 32
14 53 15 45 2z m443 -259 c283 -189 292 -196 260 -203 -47 -9 -98 -18 -133
-22 -16 -2 -75 -11 -130 -20 -55 -9 -113 -19 -130 -22 -16 -2 -41 -6 -55 -9
-50 -9 -151 -24 -195 -28 -11 -1 -19 3 -18 8 0 6 4 45 8 88 3 43 8 86 10 95 6
34 18 168 19 214 1 27 4 48 7 48 4 0 7 6 6 13 0 6 1 25 1 41 l2 28 28 -17 c15
-10 159 -106 320 -214z m-492 -174 c-3 -34 -8 -99 -12 -144 l-7 -82 28 -11
c16 -6 40 -8 54 -6 14 3 42 8 61 11 19 3 60 10 90 15 30 5 73 12 95 15 22 3
54 8 70 11 50 10 70 10 69 -1 -1 -5 -5 -35 -8 -65 -3 -30 -8 -66 -10 -80 -3
-14 -8 -50 -11 -80 -3 -30 -7 -66 -9 -80 -3 -14 -8 -50 -12 -80 -3 -30 -8 -62
-9 -70 -2 -8 -6 -45 -10 -82 l-7 -67 -42 26 c-22 15 -134 91 -248 170 -114 79
-216 143 -227 143 -23 0 -51 -25 -51 -47 0 -20 42 -58 130 -117 l72 -48 -118
-79 c-66 -42 -119 -77 -120 -76 -2 2 -14 122 -29 292 -18 192 -16 187 -53 206
-15 7 -53 30 -85 51 -32 21 -60 38 -63 38 -2 0 -23 12 -47 28 -23 15 -46 29
-52 32 -34 17 -205 123 -202 126 3 3 35 9 112 19 70 10 84 12 135 20 25 4 54
8 65 10 22 3 79 11 170 25 33 5 78 12 100 15 66 10 99 16 101 18 2 1 21 3 44
4 l42 2 -6 -62z m844 -122 c0 -11 -168 -325 -179 -335 -7 -6 -24 -34 -47 -75
-9 -16 -44 -66 -76 -110 l-60 -80 7 60 c4 32 8 67 10 75 2 9 6 43 9 75 4 32 9
72 11 89 3 17 12 81 21 141 8 61 18 113 22 117 4 3 26 9 50 12 97 14 124 18
147 24 30 8 85 13 85 7z"/>
</g>
</svg>
