<svg xmlns="http://www.w3.org/2000/svg" xmlns:xlink="http://www.w3.org/1999/xlink" preserveAspectRatio="xMidYMid" width="64" height="25" viewBox="0 0 64 25">
  <defs>
    <style>

      .cls-2 {
        fill: #292b37;
      }
    </style>
  </defs>
  <path d="M63.180,13.561 C63.180,13.561 3.857,13.561 3.857,13.561 C3.857,13.561 13.216,23.362 13.216,23.362 C13.216,23.362 11.728,24.873 11.728,24.873 C11.728,24.873 -0.012,12.579 -0.012,12.579 C-0.012,12.579 0.129,12.437 0.129,12.437 C0.129,12.437 -0.012,12.294 -0.012,12.294 C-0.012,12.294 11.728,0.001 11.728,0.001 C11.728,0.001 13.216,1.512 13.216,1.512 C13.216,1.512 7.257,7.751 7.257,7.751 C7.257,7.751 7.348,7.843 7.348,7.843 C7.348,7.843 3.931,11.312 3.931,11.312 C3.931,11.312 63.180,11.312 63.180,11.312 C63.180,11.312 63.180,13.561 63.180,13.561 Z" id="path-1" class="cls-2" fill-rule="evenodd"/>
</svg>
