<svg xmlns="http://www.w3.org/2000/svg" xmlns:xlink="http://www.w3.org/1999/xlink" preserveAspectRatio="xMidYMid" width="27" height="27" viewBox="0 0 27 27">
  <defs>
    <style>

      .cls-2 {
        fill: #b8b8b9;
      }
    </style>
  </defs>
  <path d="M15.500,13.500 C15.500,13.500 27.000,25.000 27.000,25.000 C27.000,25.000 25.000,27.000 25.000,27.000 C25.000,27.000 13.500,15.500 13.500,15.500 C13.500,15.500 2.000,27.000 2.000,27.000 C2.000,27.000 0.000,25.000 0.000,25.000 C0.000,25.000 11.500,13.500 11.500,13.500 C11.500,13.500 1.000,3.000 1.000,3.000 C1.000,3.000 0.000,2.000 0.000,2.000 C0.000,2.000 2.000,-0.000 2.000,-0.000 C2.000,-0.000 13.500,11.500 13.500,11.500 C13.500,11.500 25.000,-0.000 25.000,-0.000 C25.000,-0.000 27.000,2.000 27.000,2.000 C27.000,2.000 26.000,3.000 26.000,3.000 C26.000,3.000 15.500,13.500 15.500,13.500 Z" id="path-1" class="cls-2" fill-rule="evenodd"/>
</svg>
