<svg xmlns="http://www.w3.org/2000/svg" xmlns:xlink="http://www.w3.org/1999/xlink" preserveAspectRatio="xMidYMid" width="15" height="23" viewBox="0 0 15 23">
  <defs>
    <style>

      .cls-2 {
        fill: #b5b5b5;
      }
    </style>
  </defs>
  <path d="M11.126,22.862 C11.126,22.862 0.099,11.831 0.099,11.831 C-0.077,11.655 -0.077,11.344 0.099,11.168 C0.099,11.168 11.127,0.136 11.127,0.136 C11.215,0.049 11.334,-0.001 11.458,-0.001 C11.582,-0.001 11.701,0.049 11.789,0.136 C11.789,0.136 14.831,3.180 14.831,3.180 C14.923,3.271 14.969,3.391 14.969,3.511 C14.969,3.631 14.923,3.751 14.831,3.842 C14.831,3.842 7.177,11.499 7.177,11.499 C7.177,11.499 14.831,19.156 14.831,19.156 C15.007,19.332 15.007,19.643 14.831,19.819 C14.831,19.819 11.789,22.862 11.789,22.862 C11.606,23.045 11.309,23.045 11.126,22.862 Z" id="path-1" class="cls-2" fill-rule="evenodd"/>
</svg>
