<?xml version="1.0" encoding="utf-8"?>
<!-- Generator: Adobe Illustrator 16.0.0, SVG Export Plug-In . SVG Version: 6.00 Build 0)  -->
<!DOCTYPE svg PUBLIC "-//W3C//DTD SVG 1.1//EN" "http://www.w3.org/Graphics/SVG/1.1/DTD/svg11.dtd">
<svg version="1.1" id="Слой_1" xmlns="http://www.w3.org/2000/svg" xmlns:xlink="http://www.w3.org/1999/xlink" x="0px" y="0px"
	 width="100%" height="100%" viewBox="0 0 238.472 209.953" enable-background="new 0 0 238.472 209.953"
	 xml:space="preserve">
<g>
	<path fill="#131418" d="M238.472,15.703c0,8.67-7.029,15.699-15.699,15.699c-8.67,0-15.699-7.029-15.699-15.699
		C207.073,7.029,214.103,0,222.772,0C231.443,0,238.472,7.029,238.472,15.703z"/>
	<path id="logo-svg" fill="#131418" d="M186.637,52.772c-1.001-0.951-2.996-1.351-4.354-1.063c-5.287,1.137-133.114,28.382-182.114,74.503
		c0,0.007,0,0.011,0,0.014c0,0.203,0.158,0.434-0.017,0.676c-0.052,0.073,0.197,0.157,0.151,0.234
		c-0.112,0.179-0.068,0.36-0.152,0.553c-0.042,0.098-0.003,0.199-0.038,0.301c-0.063,0.186-0.073,0.375-0.111,0.567
		c-0.021,0.112,0.074,0.221,0.068,0.329c-0.024,0.199,0.099,0.395,0.099,0.598c0,0.077,0,0.154,0,0.234c0,0.032,0,0.063,0,0.098
		c0,0.042,0,0.084,0,0.125c0,0.242,0.008,0.476,0.082,0.696c0.007,0.014-0.042,0.028-0.035,0.042
		c0.098,0.283,0.208,0.549,0.359,0.801c0.039,0.063,0.075,0.125,0.117,0.188c0.122,0.182,0.256,0.357,0.409,0.518
		c0.06,0.063,0.117,0.129,0.181,0.189c0.189,0.175,0.38,0.329,0.59,0.465c0.035,0.021,0.055,0.045,0.08,0.066l48.331,29.463
		l3.862,43.76c0.129,1.477,1.032,2.771,2.365,3.408c0.574,0.276,1.193,0.413,1.802,0.413c0.822,0,1.637-0.241,2.341-0.713
		l28.515-19.191c0.178-0.118,0.329-0.262,0.486-0.398l24.243,16.791c0.052,0.032,0.101,0.056,0.154,0.088
		c0.076,0.049,0.154,0.098,0.238,0.137c0.15,0.087,0.311,0.157,0.472,0.22c0.067,0.028,0.133,1.332,0.206,1.348
		c0.241,0.081,0.486,1.444,0.731,1.444c0.01,0,0.021,0,0.028,0c0.189,0,0.378-1.23,0.56-1.23c0.276,0,0.546-0.661,0.808-0.717
		c0.063-0.007,0.13-0.351,0.193-0.369c0.196-0.05,0.385-0.257,0.567-0.332c0.094-0.039,0.175-0.166,0.266-0.208
		c0.154-0.077,0.304-0.194,0.451-0.289c0.087-0.057,0.168-0.143,0.252-0.206c0.144-0.105,0.27-0.234,0.399-0.36
		c0.042-0.042,0.091-0.074,0.133-0.116c52.685-56.894,67.901-145.61,68.524-149.356C188.11,55.127,187.641,53.731,186.637,52.772z
		 M153.451,137.391c-8.051,17.683-18.292,35.909-31.146,52.125l6.424-48.116L153.451,137.391z M89.146,139.323l4.807-46.296
		l54.697,36.665L89.146,139.323z M83.415,113.41l-64.357,9.489c18.386-12.907,42.612-24.145,66.845-33.417L83.415,113.41z
		 M61.862,198.331l-3.321-37.609c-0.014-0.192-0.066-0.374-0.105-0.56c0.091-1.498-0.605-2.999-1.98-3.838l-40.254-24.538
		l66.323-9.776l-2.274,21.889c-0.133,1.298,0.343,2.586,1.288,3.481c0.783,0.738,1.815,1.141,2.876,1.141
		c0.224,0,0.448-0.018,0.668-0.056l35.006-5.668l-7.054,52.86l-41.132-28.494c-1.903-1.309-4.513-0.836-5.829,1.061
		c-1.316,1.903-0.843,4.513,1.06,5.829l15.181,10.514L61.862,198.331z M158.342,126.104l-60.97-40.869
		c34.817-12.484,67.706-20.756,81.033-23.911C176.029,72.601,169.962,97.89,158.342,126.104z"/>
</g>
</svg>
