<svg xmlns="http://www.w3.org/2000/svg" xmlns:xlink="http://www.w3.org/1999/xlink" preserveAspectRatio="xMidYMid" width="100%" height="100%" viewBox="0 0 47 33">
  <defs>
    <style>

      .cls-2 {
        fill: #56d4af;
      }
    </style>
  </defs>
  <path d="M42.594,32.999 C42.594,32.999 4.407,32.999 4.407,32.999 C1.978,32.999 0.001,31.029 0.001,28.607 C0.001,28.607 0.001,4.392 0.001,4.392 C0.001,1.971 1.978,-0.001 4.407,-0.001 C4.407,-0.001 42.594,-0.001 42.594,-0.001 C45.023,-0.001 47.000,1.971 47.000,4.392 C47.000,4.392 47.000,28.607 47.000,28.607 C47.000,31.029 45.023,32.999 42.594,32.999 ZM2.938,28.607 C2.938,29.413 3.598,30.071 4.407,30.071 C4.407,30.071 42.594,30.071 42.594,30.071 C43.403,30.071 44.062,29.413 44.062,28.607 C44.062,28.607 44.062,26.969 44.062,26.969 C44.062,26.969 29.242,17.197 29.242,17.197 C29.242,17.197 27.351,19.015 27.351,19.015 C26.270,20.055 24.884,20.573 23.499,20.573 C22.112,20.573 20.726,20.053 19.645,19.015 C19.645,19.015 17.699,17.144 17.699,17.144 C17.699,17.144 2.938,26.898 2.938,26.898 C2.938,26.898 2.938,28.607 2.938,28.607 ZM3.367,3.360 C3.103,3.625 2.938,3.990 2.938,4.392 C2.938,4.392 2.938,23.385 2.938,23.385 C2.938,23.385 15.534,15.061 15.534,15.061 C15.534,15.061 3.367,3.360 3.367,3.360 ZM7.147,2.928 C7.147,2.928 21.683,16.907 21.683,16.907 C22.700,17.884 24.293,17.883 25.310,16.907 C25.310,16.907 39.852,2.928 39.852,2.928 C39.852,2.928 7.147,2.928 7.147,2.928 ZM43.634,3.361 C43.634,3.361 31.409,15.114 31.409,15.114 C31.409,15.114 44.062,23.458 44.062,23.458 C44.062,23.458 44.062,4.392 44.062,4.392 C44.062,3.991 43.898,3.626 43.634,3.361 Z" id="path-1" class="cls-2" fill-rule="evenodd"/>
</svg>
