<svg xmlns="http://www.w3.org/2000/svg" xmlns:xlink="http://www.w3.org/1999/xlink" preserveAspectRatio="xMidYMid" width="15" height="23" viewBox="0 0 15 23">
  <defs>
    <style>

      .cls-2 {
        fill: #b5b5b5;
      }
    </style>
  </defs>
  <path d="M3.842,22.862 C3.842,22.862 14.870,11.831 14.870,11.831 C15.045,11.655 15.045,11.344 14.870,11.168 C14.870,11.168 3.842,0.136 3.842,0.136 C3.754,0.049 3.635,-0.001 3.511,-0.001 C3.387,-0.001 3.267,0.049 3.179,0.136 C3.179,0.136 0.137,3.180 0.137,3.180 C0.046,3.271 -0.000,3.391 -0.000,3.511 C-0.000,3.631 0.046,3.751 0.137,3.842 C0.137,3.842 7.791,11.499 7.791,11.499 C7.791,11.499 0.137,19.156 0.137,19.156 C-0.038,19.332 -0.038,19.643 0.137,19.819 C0.137,19.819 3.180,22.862 3.180,22.862 C3.363,23.045 3.659,23.045 3.842,22.862 Z" id="path-1" class="cls-2" fill-rule="evenodd"/>
</svg>
