<svg xmlns="http://www.w3.org/2000/svg" xmlns:xlink="http://www.w3.org/1999/xlink" preserveAspectRatio="xMidYMid" width="100%" height="100%" viewBox="0 0 14 17">
  <defs>
    <style>

      .cls-2 {
        fill: #bcbec9;
      }
    </style>
  </defs>
  <path d="M9.086,9.926 C8.988,9.893 8.360,9.607 8.752,8.403 C8.752,8.403 8.746,8.403 8.746,8.403 C9.768,7.340 10.550,5.629 10.550,3.944 C10.550,1.354 8.844,-0.004 6.863,-0.004 C4.880,-0.004 3.184,1.354 3.184,3.944 C3.184,5.636 3.961,7.353 4.989,8.414 C5.390,9.476 4.673,9.871 4.523,9.925 C2.448,10.685 0.013,12.066 0.013,13.430 C0.013,13.798 0.013,13.576 0.013,13.941 C0.013,15.800 3.580,16.223 6.882,16.223 C10.189,16.223 13.712,15.800 13.712,13.941 C13.712,13.576 13.712,13.798 13.712,13.430 C13.712,12.025 11.264,10.654 9.086,9.926 Z" id="path-1" class="cls-2" fill-rule="evenodd"/>
</svg>
